<svg xmlns="http://www.w3.org/2000/svg" width="621" height="410"><path d="M485.28 93.584c3.752 0 6.76 2.892 6.76 6.443s-3.037 6.443-6.76 6.443c-3.752 0-6.76-2.892-6.76-6.443s3.037-6.443 6.76-6.443zm-87.084 91.332c-2.506 5.24-17.558 15.364-24.25 14.018-2.82-6.478.453-18.373 5.7-19.116 3.186-.595 15.4 2.73 18.55 5.062zm200.718 149.742c-35.08 25.488-102.306 52.746-161.778 55.224-64.782 2.782-143.37-38.232-106.554-114.342 9.24-19.15 24.85-41.418 43.896-52.038 4.673 7.186 11.61 14.94 15.116 19.576 7.753 10.266 16.673 24.638 19.718 39.294-1.2 9.17-7.894 14.974-13.664 23.895-7.753 11.93-31.93 31.046-18.48 45.666 17.027 18.373 41.772-10.726 46.374-28.037 2.623-9.84 2.99-20.178 3.823-31.364 3.427-10.69 13.523-22.373 20.4-31 15.222-19.222 27.116-25.913 44.25-42.48 25.63-24.674 32.25-6.053 43.896-42.126 5.7-17.877 4.106-17.842-12.532-20.213-27.718-4-22.054 36.462-37.17 48.498-16.71 13.3-49.206 45.312-64.428 63.366-5.168-5.876-8.32-19.08-20.638-34.834-2.02-2.588-14.656-17.38-14.443-19.187 21.31-21.806 82.482-37.524 81.066-42.126-4.496-14.974-44.604-5.133-53.1-5.63-16.46-.927-19.045-5.522-33.17-5.522-12.32 0-20.497 11.647-23.54 21.7-2.96 12.178.193 14.797 3.61 23.79-11.965 15-38.586 40.7-47.8 64.074-37.524 93.8 52.392 140.538 121.068 135.582 63.72-4.567 135.582-29.736 170.274-63.366 21.028-20.25 13.38-22.054-5.345-8.425zm-467.28-96.996c-.016-9.275 10.832-16.532 21.063-23.364 7.222-4.85 18.762-9.735 16.638-14.514-2.66-6.018-10.16-2.73-22.196 2.8-9.877 4.53-43.542 29.1-31.86 44.25 9.806 10.195 11.894 20.78-3.1 24.32C38.9 287.32 1.022 213.795 21.908 149.367 40.953 90.25 89.876 49.54 144.392 23.343c14.09-6.726 26.87 5.7 32.18-.97 2.07-6.23-12.496-23.612-23.647-18.974C90.974 29.276 27.608 82.695 8.138 148.54c-24.532 83.2 22.975 155.76 107.97 137.706 9.027-1.936 31.612-17.027 23.045-29.453-4.567-6.584-7.753-11.434-7.753-18.974zm58.4-35.754c0 4.637-3.16 26.338-10.797 26.1-10.266-.327-9.487-14.94-21.346-4.213-10.408 9.38 5.912 15.86 5.098 24.25-.974 10.195-28.072 32.32-24.886 35.754s20.744-7.08 27.187-13.098c14.514-23.966 38.586-49.206 64.074-51.33 3.646-.104 7.434.32 8.354.733 2.528 1.13-3.682 10.372-6.124 14.125-7.328 11.15-32.32 23.966-13.558 30.692 10.797 3.894 35.117-34.48 47.082-48.498 12.956-21.948 39.294-27.895 46.728-36.108-.75-28.816-47.082 18.337-52.746 20.71-3.317 1.21-8.744-1.274-18.125-1.267-7.753-.05-14.868 4.637-21.31 6.195-10.903 2.56-13.063-4.496-13.735-13.7-.704-9.912-4.036-41.418-15.753-37.524-13.594 4.496-.047 34.834-.047 47.436zM169.69 326.516c6.337 5.204 15.895-15.647 26.267-3.434 10.726 14.55-34.87 37.878-29.56 40.002 18.69 2.305 53.454-22.94 49.56-43.542-4.53-23.895-28-20.92-42.834-11.505-8.85 5.558-11.965 11.682-3.462 18.656zm243.198-23.683c0 9.3-2.386 29.984-15.576 29.594-13.17-.38 15.576-25.417 15.576-29.594z"/><script xmlns=""/></svg>